# xmcd
#
# Track frame offsets: 
#        187
#        17615
#        40030
#        60682
#        79365
#        101125
#        117647
#        137430
#        158025
#        175867
#        193440
#        214497
#        232922
#        254522
#        274537
#
# Disc length: 3916 seconds
#
# Revision: 2
# Processed by: cddbd v1.5.2PL0 Copyright (c) Steve Scherf et al.
# Submitted via: ExactAudioCopy v1.0b3
#
DISCID=d70f4a0f
DTITLE=男闘呼組 - NEW BEST 男闘呼組
DYEAR=1994
DGENRE=JPop
TTITLE0=DAYBREAK
TTITLE1=秋
TTITLE2=TIME ZONE
TTITLE3=CROSS TO YOU
TTITLE4=別離のハイウェイ
TTITLE5=Burn it
TTITLE6=ロックよ静かに流れよ
TTITLE7=第二章 追憶の挽歌
TTITLE8=ROCKIN' MY SOUL
TTITLE9=熱くささやかな叫び
TTITLE10=DON'T SLEEP
TTITLE11=翼なき疾走
TTITLE12=OVER THE RAIN
TTITLE13=THE REAL
TTITLE14=Stand Out
EXTD=
EXTT0=
EXTT1=
EXTT2=
EXTT3=
EXTT4=
EXTT5=
EXTT6=
EXTT7=
EXTT8=
EXTT9=
EXTT10=
EXTT11=
EXTT12=
EXTT13=
EXTT14=
PLAYORDER=
